<?xml version="1.0" encoding="utf-8"?>
<!-- Generator: Adobe Illustrator 27.8.0, SVG Export Plug-In . SVG Version: 6.00 Build 0)  -->
<svg version="1.1" id="Layer_1" xmlns="http://www.w3.org/2000/svg" xmlns:xlink="http://www.w3.org/1999/xlink" x="0px" y="0px"
	 viewBox="0 0 8192 4151.8" style="enable-background:new 0 0 8192 4151.8;" xml:space="preserve">
<style type="text/css">
	.st0{fill:#FFFFFF;stroke:#231F20;stroke-width:3.8533;stroke-miterlimit:9.6332;}
	.st1{fill:none;stroke:#231F20;stroke-width:3.8533;stroke-miterlimit:9.6332;}
	.st2{fill:#231F20;}
	.st3{fill:none;}
	.st4{opacity:0.26;fill:none;stroke:#231F20;stroke-width:3.8533;stroke-miterlimit:9.6332;enable-background:new    ;}
	.st5{opacity:0.36;fill:none;stroke:#231F20;stroke-width:3.8533;stroke-miterlimit:9.6332;enable-background:new    ;}
	.st6{fill:none;stroke:#FFFFFF;stroke-width:2.89;stroke-miterlimit:9.6332;}
	.st7{fill:#231F20;stroke:#FFFFFF;stroke-width:3.8533;stroke-miterlimit:9.6332;}
	.st8{fill:#FFFFFF;}
	.st9{font-family:'LucidaConsole';}
	.st10{font-size:96.3318px;}
</style>
<g id="Layer_2_00000018932906957171432470000001161309423479260087_">
	<path class="st0" d="M4609.6,2234.1c16.3-214.4-145.2-508.7-273.9-658.2"/>
	<path class="st1" d="M3469.7,957.1c-231.3-96.2-485.7-156.7-749.9-156.7c-744,0-1501.6,321.4-1427.9,833.3
		c4.1,28.8,6.7,64,19.6,103.4"/>
	<polygon class="st2" points="3425.9,980.2 3623.4,916.6 4516.8,1513.9 4193.6,1689.2 3264.8,1048.1 	"/>
	<path class="st2" d="M1963.9,2831.8c280.8,211.7,697.6,411.4,1065.5,415c326.5,3.2,584.3-44.4,812.1-130.9v-237
		c-234.3,81.5-520.7,130.5-837.4,127.4c-367.9-3.6-771.4-180.5-1052.2-392.2L1963.9,2831.8L1963.9,2831.8z"/>
	<path class="st2" d="M4358.5,2831.6c143-112.2,246.1-250.3,254.7-445.6c0,0-2.6-276-4.7-229.8c-8.8,200-106.1,315.4-250,436.4"/>
	<polygon class="st2" points="4516.7,1526 4517.8,1554.5 4218.1,1689.2 	"/>
	<polygon class="st2" points="4358.5,2592.6 4356.3,2591 4356.3,2590.5 4355.9,2590.7 4310.3,2555.5 3827.7,2809.4 3839.3,3111.6 
		3878.2,3156.4 3907.3,3141.3 3904.5,3060.8 3996.6,3010.9 3996.6,3094.7 4025.5,3079.7 4022.6,2997.2 4114.7,2951.3 4114.7,3033.2 
		4137.7,3021.3 4137.7,2938.4 4226.7,2892.3 4226.7,2974.9 4247.9,2963.9 4247.9,2880.8 4340,2833.8 4340,2915.9 4356.3,2907.4 
		4356.3,2593.8 	"/>
	<line class="st3" x1="4358.5" y1="2592.6" x2="4358.5" y2="2831.6"/>
	<polygon class="st2" points="1896.9,2648.9 1914.2,2667.1 2228.7,2518.2 	"/>
	<path class="st1" d="M4033.6,1813.3l-631.5-507c-116.2-93.3-249.9-162.5-393.5-202.1c-112.6-31.1-229.4-48.6-348.6-48.6
		c-560.8,0-1086,195.9-1125.5,607.2"/>
	<path class="st1" d="M4033.6,1813.3c124.2,115.1,221.8,224,221.8,373.4c0,398.3-515.6,721.2-1151.7,721.2
		c-437.3,0-733.9-139.4-928.9-364.2"/>
	<path class="st1" d="M2091,2530.4c-88.7-102.2-139-219.3-139-343.8"/>
	<polygon class="st2" points="2240.6,2505 1568.6,1650.2 1311.5,1737 1261.3,1753.9 1311.5,2009.5 1464.9,2234.1 1464.9,2234.1 
		1464.9,2151 1550.5,2272 1550.5,2359.4 1891,2857.9 1963.9,2831.8 1952,2614.2 2013.6,2590.9 	"/>
</g>
<g id="Layer_8">
	<line class="st4" x1="6857.9" y1="1837.9" x2="3550.3" y2="3877.9"/>
	<line class="st4" x1="6818.6" y1="1979.3" x2="3511" y2="4019.3"/>
	<line class="st4" x1="5996" y1="2369.4" x2="2524.4" y2="267.4"/>
	<line class="st4" x1="8005.2" y1="3586" x2="6091.9" y2="2427.5"/>
	<line class="st4" x1="6599.3" y1="1997.4" x2="2896.7" y2="107.6"/>
	<line class="st5" x1="8427.7" y1="2930.6" x2="6703.3" y2="2050.4"/>
	<polygon class="st4" points="1729.6,3297.7 1880.7,3247 2331.4,3838.5 2021.5,3862.3 	"/>
</g>
<g id="Layer_5">
	<line class="st6" x1="4107.1" y1="1581.2" x2="4188.5" y2="1635.8"/>
	<line class="st6" x1="3989.2" y1="1502.1" x2="4082" y2="1564.4"/>
	<line class="st6" x1="3768.8" y1="1354.4" x2="3971.2" y2="1490.1"/>
	<line class="st6" x1="3655.5" y1="1278.4" x2="3749.9" y2="1341.7"/>
	<line class="st6" x1="3324.3" y1="1056.3" x2="3636.2" y2="1265.4"/>
	<line class="st6" x1="4132" y1="1570.7" x2="4213.1" y2="1625.1"/>
	<line class="st6" x1="4014.1" y1="1491.6" x2="4107" y2="1554"/>
	<line class="st6" x1="3794.2" y1="1344.2" x2="3996.3" y2="1479.7"/>
	<line class="st6" x1="3681.6" y1="1268.7" x2="3773.4" y2="1330.2"/>
	<line class="st6" x1="3348.9" y1="1045.6" x2="3660.6" y2="1254.6"/>
	<line class="st6" x1="4156.9" y1="1560.2" x2="4238.3" y2="1614.7"/>
	<line class="st6" x1="4039.7" y1="1481.6" x2="4132" y2="1543.5"/>
	<line class="st6" x1="3819.6" y1="1334" x2="4021.3" y2="1469.2"/>
	<line class="st6" x1="3704.9" y1="1257.1" x2="3798.8" y2="1320.1"/>
	<line class="st6" x1="3374.6" y1="1035.6" x2="3685.5" y2="1244.1"/>
	<line class="st6" x1="4181.9" y1="1549.7" x2="4263.2" y2="1604.3"/>
	<line class="st6" x1="4063.9" y1="1470.6" x2="4156.5" y2="1532.8"/>
	<line class="st6" x1="3844.5" y1="1323.5" x2="4046.2" y2="1458.7"/>
	<line class="st6" x1="3730.7" y1="1247.2" x2="3823.4" y2="1309.4"/>
	<line class="st6" x1="3400.8" y1="1026" x2="3710.4" y2="1233.6"/>
	<line class="st6" x1="4206.8" y1="1539.2" x2="4288.1" y2="1593.8"/>
	<line class="st6" x1="4088.8" y1="1460.1" x2="4181.8" y2="1522.5"/>
	<line class="st6" x1="3868.5" y1="1312.4" x2="4071.1" y2="1448.2"/>
	<line class="st6" x1="3755.2" y1="1236.5" x2="3848.6" y2="1299.1"/>
	<line class="st6" x1="3425.7" y1="1015.5" x2="3735.7" y2="1223.4"/>
	<line class="st6" x1="4231.6" y1="1528.7" x2="4313" y2="1583.3"/>
	<line class="st6" x1="4113.8" y1="1449.7" x2="4205.8" y2="1511.4"/>
	<line class="st6" x1="3894.3" y1="1302.5" x2="4096" y2="1437.8"/>
	<line class="st6" x1="3780.6" y1="1226.2" x2="3873.5" y2="1288.6"/>
	<line class="st6" x1="3449.8" y1="1004.4" x2="3760.3" y2="1212.6"/>
	<line class="st6" x1="4281.5" y1="1507.7" x2="4362.9" y2="1562.3"/>
	<line class="st6" x1="4163.5" y1="1428.7" x2="4256.5" y2="1491"/>
	<line class="st6" x1="3944.1" y1="1281.5" x2="4145.6" y2="1416.6"/>
	<line class="st6" x1="3830.4" y1="1205.3" x2="3923.3" y2="1267.6"/>
	<line class="st6" x1="3500.5" y1="984" x2="3810.1" y2="1191.6"/>
	<line class="st6" x1="4256.6" y1="1518.2" x2="4337.9" y2="1572.8"/>
	<line class="st6" x1="4138.6" y1="1439.2" x2="4231.6" y2="1501.5"/>
	<line class="st6" x1="3919.2" y1="1292" x2="4120.9" y2="1427.3"/>
	<line class="st6" x1="3805.5" y1="1215.7" x2="3898.4" y2="1278.1"/>
	<line class="st6" x1="3475.1" y1="994.2" x2="3785.2" y2="1202.1"/>
	<line class="st6" x1="4306.3" y1="1497.2" x2="4387.7" y2="1551.7"/>
	<line class="st6" x1="4188.4" y1="1418.2" x2="4281.8" y2="1480.7"/>
	<line class="st6" x1="3969" y1="1271" x2="4170.3" y2="1406"/>
	<line class="st6" x1="3855.3" y1="1194.8" x2="3948.2" y2="1257.1"/>
	<line class="st6" x1="3525" y1="973.3" x2="3834.5" y2="1180.8"/>
	<line class="st6" x1="4330.6" y1="1486.3" x2="4412.7" y2="1541.3"/>
	<line class="st6" x1="4213.4" y1="1407.7" x2="4306.3" y2="1470"/>
	<line class="st6" x1="3993.9" y1="1260.5" x2="4194.9" y2="1395.3"/>
	<line class="st6" x1="3879.6" y1="1183.9" x2="3973.2" y2="1246.6"/>
	<line class="st6" x1="3550.3" y1="963" x2="3859" y2="1170"/>
	<line class="st6" x1="4356.1" y1="1476.2" x2="4437.6" y2="1530.8"/>
	<line class="st6" x1="4238.3" y1="1397.2" x2="4331.7" y2="1459.8"/>
	<line class="st6" x1="4018.8" y1="1250" x2="4220.5" y2="1385.3"/>
	<line class="st6" x1="3905.3" y1="1173.9" x2="3998.1" y2="1236.1"/>
	<line class="st6" x1="3575.2" y1="952.5" x2="3884.8" y2="1160.2"/>
	<line class="st6" x1="4381.1" y1="1465.8" x2="4461.8" y2="1519.9"/>
	<line class="st6" x1="4263.2" y1="1386.7" x2="4356.1" y2="1449"/>
	<line class="st6" x1="4043.7" y1="1239.5" x2="4245.7" y2="1375"/>
	<line class="st6" x1="3930" y1="1163.3" x2="4023" y2="1225.6"/>
	<line class="st6" x1="3600.1" y1="942.1" x2="3909.1" y2="1149.3"/>
	<line class="st6" x1="1875.4" y1="2476.3" x2="1934.8" y2="2549.6"/>
	<line class="st6" x1="1789.4" y1="2370.1" x2="1857.1" y2="2453.7"/>
	<line class="st6" x1="1628.6" y1="2171.7" x2="1776.3" y2="2354"/>
	<line class="st6" x1="1545.9" y1="2069.7" x2="1614.8" y2="2154.7"/>
	<line class="st6" x1="1304.2" y1="1771.5" x2="1531.8" y2="2052.3"/>
	<line class="st6" x1="1900.2" y1="2471.7" x2="1959.3" y2="2544.6"/>
	<line class="st6" x1="1814.1" y1="2365.5" x2="1881.9" y2="2449.2"/>
	<line class="st6" x1="1653.7" y1="2167.5" x2="1801.2" y2="2349.5"/>
	<line class="st6" x1="1571.5" y1="2066.1" x2="1638.5" y2="2148.7"/>
	<line class="st6" x1="1328.8" y1="1766.6" x2="1556.2" y2="2047.2"/>
	<line class="st6" x1="1924.9" y1="2467" x2="1984.2" y2="2540.2"/>
	<line class="st6" x1="1839.3" y1="2361.4" x2="1906.7" y2="2444.5"/>
	<line class="st6" x1="1678.7" y1="2163.2" x2="1825.9" y2="2344.8"/>
	<line class="st6" x1="1595.1" y1="2060.1" x2="1663.6" y2="2144.6"/>
	<line class="st6" x1="1354.1" y1="1762.7" x2="1580.9" y2="2042.6"/>
	<line class="st6" x1="1949.6" y1="2462.3" x2="2009" y2="2535.6"/>
	<line class="st6" x1="1863.6" y1="2356.1" x2="1931.2" y2="2439.5"/>
	<line class="st6" x1="1703.5" y1="2158.6" x2="1850.6" y2="2340.2"/>
	<line class="st6" x1="1620.5" y1="2056.2" x2="1688.1" y2="2139.6"/>
	<line class="st6" x1="1379.8" y1="1759.2" x2="1605.7" y2="2037.9"/>
	<line class="st6" x1="1974.4" y1="2457.7" x2="2033.7" y2="2530.9"/>
	<line class="st6" x1="1888.3" y1="2351.5" x2="1956.2" y2="2435.2"/>
	<line class="st6" x1="1727.6" y1="2153.2" x2="1875.4" y2="2335.5"/>
	<line class="st6" x1="1644.9" y1="2051.1" x2="1713.1" y2="2135.2"/>
	<line class="st6" x1="1404.5" y1="1754.5" x2="1630.7" y2="2033.6"/>
	<line class="st6" x1="1999.1" y1="2452.9" x2="2058.5" y2="2526.2"/>
	<line class="st6" x1="1913.1" y1="2346.9" x2="1980.3" y2="2429.7"/>
	<line class="st6" x1="1753" y1="2149.3" x2="1900.1" y2="2330.8"/>
	<line class="st6" x1="1670" y1="2046.9" x2="1737.8" y2="2130.5"/>
	<line class="st6" x1="1428.6" y1="1749.1" x2="1655.2" y2="2028.6"/>
	<line class="st6" x1="2048.6" y1="2443.7" x2="2108" y2="2516.9"/>
	<line class="st6" x1="1962.6" y1="2337.5" x2="2030.4" y2="2421.2"/>
	<line class="st6" x1="1802.5" y1="2139.9" x2="1949.5" y2="2321.3"/>
	<line class="st6" x1="1719.5" y1="2037.5" x2="1787.3" y2="2121.2"/>
	<line class="st6" x1="1478.8" y1="1740.5" x2="1704.7" y2="2019.2"/>
	<line class="st6" x1="2023.9" y1="2448.3" x2="2083.3" y2="2521.6"/>
	<line class="st6" x1="1937.8" y1="2342.1" x2="2005.6" y2="2425.8"/>
	<line class="st6" x1="1777.7" y1="2144.6" x2="1924.9" y2="2326.2"/>
	<line class="st6" x1="1694.7" y1="2042.2" x2="1762.6" y2="2125.9"/>
	<line class="st6" x1="1453.7" y1="1744.8" x2="1679.9" y2="2023.9"/>
	<line class="st6" x1="2073.3" y1="2438.9" x2="2132.7" y2="2512.2"/>
	<line class="st6" x1="1987.3" y1="2332.8" x2="2055.4" y2="2416.8"/>
	<line class="st6" x1="1827.2" y1="2135.2" x2="1974" y2="2316.4"/>
	<line class="st6" x1="1744.2" y1="2032.9" x2="1812" y2="2116.5"/>
	<line class="st6" x1="1503.2" y1="1735.5" x2="1729.1" y2="2014.1"/>
	<line class="st6" x1="2097.6" y1="2433.7" x2="2157.5" y2="2507.6"/>
	<line class="st6" x1="2012" y1="2328.1" x2="2079.9" y2="2411.8"/>
	<line class="st6" x1="1852" y1="2130.6" x2="1998.6" y2="2311.6"/>
	<line class="st6" x1="1768.6" y1="2027.7" x2="1836.8" y2="2111.9"/>
	<line class="st6" x1="1528.2" y1="1731.2" x2="1753.5" y2="2009.1"/>
	<line class="st6" x1="2122.8" y1="2429.6" x2="2182.2" y2="2502.9"/>
	<line class="st6" x1="2036.8" y1="2323.5" x2="2105" y2="2407.6"/>
	<line class="st6" x1="1876.7" y1="2125.9" x2="2023.9" y2="2307.5"/>
	<line class="st6" x1="1793.9" y1="2023.7" x2="1861.5" y2="2107.2"/>
	<line class="st6" x1="1553" y1="1726.5" x2="1778.9" y2="2005.2"/>
	<line class="st6" x1="2147.6" y1="2425" x2="2206.5" y2="2497.7"/>
	<line class="st6" x1="2061.5" y1="2318.8" x2="2129.4" y2="2402.5"/>
	<line class="st6" x1="1901.4" y1="2121.2" x2="2048.8" y2="2303.1"/>
	<line class="st6" x1="1818.4" y1="2018.8" x2="1886.3" y2="2102.5"/>
	<line class="st6" x1="1577.7" y1="1721.8" x2="1803.2" y2="2000"/>
	<line class="st6" x1="1355" y1="1763.8" x2="1579.1" y2="1721.6"/>
	<line class="st6" x1="1330.4" y1="1768.5" x2="1355" y2="1763.8"/>
	<line class="st6" x1="1305.5" y1="1773.2" x2="1330.4" y2="1768.5"/>
	<line class="st6" x1="1315" y1="1784.8" x2="1587.1" y2="1733.4"/>
	<line class="st6" x1="1325" y1="1797.2" x2="1597.2" y2="1745.9"/>
	<line class="st6" x1="1334.4" y1="1808.8" x2="1606.6" y2="1757.5"/>
	<line class="st6" x1="1344.5" y1="1821.2" x2="1616.7" y2="1769.9"/>
	<line class="st6" x1="1354.8" y1="1833.9" x2="1626.8" y2="1782.6"/>
	<line class="st6" x1="1364" y1="1845.2" x2="1636.1" y2="1793.9"/>
	<line class="st6" x1="1373.4" y1="1856.9" x2="1645.5" y2="1805.5"/>
	<line class="st6" x1="1384.7" y1="1870.8" x2="1656.8" y2="1819.5"/>
	<line class="st6" x1="1394.1" y1="1882.4" x2="1666.3" y2="1831.1"/>
	<line class="st6" x1="1404.1" y1="1894.8" x2="1676.3" y2="1843.5"/>
	<line class="st6" x1="1413.6" y1="1906.4" x2="1685.7" y2="1855.1"/>
	<line class="st6" x1="1423.6" y1="1918.8" x2="1696.2" y2="1867.4"/>
	<line class="st6" x1="1433.7" y1="1931.6" x2="1706.1" y2="1880.2"/>
	<line class="st6" x1="1443.1" y1="1942.9" x2="1715.5" y2="1891.5"/>
	<line class="st6" x1="1452.5" y1="1954.5" x2="1724.7" y2="1903.1"/>
	<line class="st6" x1="1463.6" y1="1968.2" x2="1735.8" y2="1916.9"/>
	<line class="st6" x1="1473.3" y1="1979.8" x2="1745.2" y2="1928.5"/>
	<line class="st6" x1="1482.6" y1="1992.4" x2="1755.3" y2="1940.9"/>
	<line class="st6" x1="1492.5" y1="2003.9" x2="1764.7" y2="1952.5"/>
	<line class="st6" x1="1502.6" y1="2016.3" x2="1774.7" y2="1964.9"/>
	<line class="st6" x1="1512.9" y1="2029" x2="1785" y2="1977.6"/>
	<line class="st6" x1="1522.1" y1="2040.3" x2="1794.2" y2="1989"/>
	<line class="st6" x1="1531.5" y1="2051.9" x2="1805" y2="2000.3"/>
	<line class="st6" x1="1545.8" y1="2070.3" x2="1818.4" y2="2018.8"/>
	<line class="st6" x1="1555.7" y1="2081.8" x2="1827.9" y2="2030.5"/>
	<line class="st6" x1="1565.3" y1="2094.3" x2="1837.9" y2="2042.9"/>
	<line class="st6" x1="1575.2" y1="2105.8" x2="1847.3" y2="2054.5"/>
	<line class="st6" x1="1584.7" y1="2118.3" x2="1857.4" y2="2066.9"/>
	<line class="st6" x1="1595.5" y1="2130.9" x2="1867.7" y2="2079.6"/>
	<line class="st6" x1="1604.2" y1="2142.4" x2="1876.9" y2="2090.9"/>
	<line class="st6" x1="1861.5" y1="2107.2" x2="1886.3" y2="2102.5"/>
	<line class="st6" x1="1836.8" y1="2111.9" x2="1861.5" y2="2107.2"/>
	<line class="st6" x1="1812" y1="2116.5" x2="1836.8" y2="2111.9"/>
	<line class="st6" x1="1787.3" y1="2121.2" x2="1812" y2="2116.5"/>
	<line class="st6" x1="1762.6" y1="2125.9" x2="1787.3" y2="2121.2"/>
	<line class="st6" x1="1737.8" y1="2130.6" x2="1762.6" y2="2125.9"/>
	<line class="st6" x1="1713.1" y1="2135.2" x2="1737.8" y2="2130.6"/>
	<line class="st6" x1="1687.8" y1="2140" x2="1713.1" y2="2135.2"/>
	<line class="st6" x1="1638.8" y1="2149.2" x2="1687.8" y2="2140"/>
	<line class="st6" x1="1613.9" y1="2153.9" x2="1638.8" y2="2149.2"/>
	<line class="st6" x1="1876.7" y1="2125.9" x2="1901.4" y2="2121.2"/>
	<line class="st6" x1="1852" y1="2130.6" x2="1876.7" y2="2125.9"/>
	<line class="st6" x1="1827.2" y1="2135.2" x2="1852" y2="2130.6"/>
	<line class="st6" x1="1802.5" y1="2139.9" x2="1827.2" y2="2135.2"/>
	<line class="st6" x1="1777.7" y1="2144.6" x2="1802.5" y2="2139.9"/>
	<line class="st6" x1="1753" y1="2149.3" x2="1777.7" y2="2144.6"/>
	<line class="st6" x1="1629.3" y1="2172.6" x2="1753" y2="2149.3"/>
	<line class="st6" x1="1638.7" y1="2184.2" x2="1910.8" y2="2132.9"/>
	<line class="st6" x1="1648.7" y1="2196.6" x2="1920.9" y2="2145.3"/>
	<line class="st6" x1="1658.1" y1="2208.2" x2="1930.3" y2="2156.9"/>
	<line class="st6" x1="1668.2" y1="2220.6" x2="1940.4" y2="2169.3"/>
	<line class="st6" x1="1678.3" y1="2233.4" x2="1950.6" y2="2182"/>
	<line class="st6" x1="1687.7" y1="2244.7" x2="1959.9" y2="2193.3"/>
	<line class="st6" x1="1697.1" y1="2256.3" x2="1969.3" y2="2204.9"/>
	<line class="st6" x1="1708.6" y1="2270.5" x2="1980.8" y2="2219.1"/>
	<line class="st6" x1="1718" y1="2282.1" x2="1990.2" y2="2230.7"/>
	<line class="st6" x1="1728.1" y1="2294.5" x2="2000.2" y2="2243.2"/>
	<line class="st6" x1="1737.5" y1="2306.1" x2="2009.6" y2="2254.8"/>
	<line class="st6" x1="1747.5" y1="2318.5" x2="2019.7" y2="2267.2"/>
	<line class="st6" x1="1757.8" y1="2331.2" x2="2030" y2="2279.9"/>
	<line class="st6" x1="1767" y1="2342.6" x2="2039.2" y2="2291.2"/>
	<line class="st6" x1="2023.9" y1="2307.5" x2="2049.2" y2="2302.7"/>
	<line class="st6" x1="1850.6" y1="2340.2" x2="2023.9" y2="2307.5"/>
	<line class="st6" x1="1825.9" y1="2344.8" x2="1850.6" y2="2340.2"/>
	<line class="st6" x1="1776" y1="2354.2" x2="1825.9" y2="2344.8"/>
	<line class="st6" x1="1789.4" y1="2370.1" x2="2061.5" y2="2318.8"/>
	<line class="st6" x1="1798.8" y1="2381.7" x2="2070.9" y2="2330.4"/>
	<line class="st6" x1="1808.8" y1="2394.2" x2="2081" y2="2342.8"/>
	<line class="st6" x1="1818.2" y1="2405.8" x2="2090.4" y2="2354.4"/>
	<line class="st6" x1="1828.3" y1="2418.2" x2="2100.5" y2="2366.8"/>
	<line class="st6" x1="1838.1" y1="2430.9" x2="2110.7" y2="2379.5"/>
	<line class="st6" x1="1847.8" y1="2442.2" x2="2120.6" y2="2390.7"/>
	<line class="st6" x1="2079.9" y1="2411.8" x2="2129.4" y2="2402.5"/>
	<line class="st6" x1="2030.4" y1="2421.2" x2="2079.9" y2="2411.8"/>
	<line class="st6" x1="1856.9" y1="2453.9" x2="2030.4" y2="2421.2"/>
	<line class="st6" x1="1875.4" y1="2476.3" x2="2147.6" y2="2425"/>
	<line class="st6" x1="1886.1" y1="2489.5" x2="2158.2" y2="2438.1"/>
	<line class="st6" x1="1896.5" y1="2502.3" x2="2168.7" y2="2451"/>
	<line class="st6" x1="1906.5" y1="2514.6" x2="2178.4" y2="2463"/>
	<line class="st6" x1="1916.8" y1="2526.4" x2="2188.4" y2="2475.2"/>
	<line class="st6" x1="1926.8" y1="2538.3" x2="2198" y2="2487.2"/>
	<line class="st6" x1="1934.7" y1="2549.6" x2="2206.8" y2="2498.3"/>
</g>
<g id="Layer_6">
	<line class="st6" x1="3375.9" y1="1036.5" x2="3601.5" y2="941.5"/>
	<line class="st6" x1="3351.1" y1="1047" x2="3375.9" y2="1036.5"/>
	<line class="st6" x1="3326.1" y1="1057.5" x2="3351.1" y2="1047"/>
	<line class="st6" x1="3339" y1="1066.2" x2="3613" y2="950.7"/>
	<line class="st6" x1="3352.8" y1="1075.4" x2="3626.8" y2="959.9"/>
	<line class="st6" x1="3365.7" y1="1084.1" x2="3639.7" y2="968.6"/>
	<line class="st6" x1="3379.5" y1="1093.3" x2="3653.5" y2="977.8"/>
	<line class="st6" x1="3393.5" y1="1102.7" x2="3667.4" y2="987.3"/>
	<line class="st6" x1="3406.2" y1="1111.2" x2="3680.2" y2="995.7"/>
	<line class="st6" x1="3419.1" y1="1119.9" x2="3693.1" y2="1004.4"/>
	<line class="st6" x1="3434.5" y1="1130.2" x2="3708.5" y2="1014.8"/>
	<line class="st6" x1="3447.4" y1="1138.9" x2="3721.4" y2="1023.4"/>
	<line class="st6" x1="3461.2" y1="1148.1" x2="3735.2" y2="1032.7"/>
	<line class="st6" x1="3474.1" y1="1156.8" x2="3748.1" y2="1041.3"/>
	<line class="st6" x1="3487.9" y1="1166" x2="3762.3" y2="1050.4"/>
	<line class="st6" x1="3501.8" y1="1175.5" x2="3776" y2="1060"/>
	<line class="st6" x1="3514.6" y1="1183.9" x2="3788.8" y2="1068.4"/>
	<line class="st6" x1="3527.5" y1="1192.6" x2="3801.5" y2="1077.1"/>
	<line class="st6" x1="3542.8" y1="1202.8" x2="3816.8" y2="1087.3"/>
	<line class="st6" x1="3555.9" y1="1211.3" x2="3829.6" y2="1096"/>
	<line class="st6" x1="3568.9" y1="1220.9" x2="3843.4" y2="1105.2"/>
	<line class="st6" x1="3582.3" y1="1229.3" x2="3856.3" y2="1113.9"/>
	<line class="st6" x1="3596.1" y1="1238.6" x2="3870.1" y2="1123.1"/>
	<line class="st6" x1="3610.2" y1="1248" x2="3884.2" y2="1132.6"/>
	<line class="st6" x1="3622.9" y1="1256.5" x2="3896.8" y2="1141"/>
	<line class="st6" x1="3635.7" y1="1265.1" x2="3911.1" y2="1149.1"/>
	<line class="st6" x1="3655.5" y1="1279" x2="3930" y2="1163.3"/>
	<line class="st6" x1="3668.9" y1="1287.4" x2="3942.9" y2="1171.9"/>
	<line class="st6" x1="3682.2" y1="1296.8" x2="3956.7" y2="1181.2"/>
	<line class="st6" x1="3695.6" y1="1305.3" x2="3969.6" y2="1189.8"/>
	<line class="st6" x1="3708.9" y1="1314.7" x2="3983.4" y2="1199.1"/>
	<line class="st6" x1="3723.5" y1="1324" x2="3997.5" y2="1208.5"/>
	<line class="st6" x1="3735.6" y1="1332.6" x2="4010.1" y2="1217"/>
	<line class="st6" x1="3998.1" y1="1236.1" x2="4023" y2="1225.6"/>
	<line class="st6" x1="3973.2" y1="1246.6" x2="3998.1" y2="1236.1"/>
	<line class="st6" x1="3948.2" y1="1257.1" x2="3973.2" y2="1246.6"/>
	<line class="st6" x1="3923.3" y1="1267.6" x2="3948.2" y2="1257.1"/>
	<line class="st6" x1="3898.4" y1="1278.1" x2="3923.3" y2="1267.6"/>
	<line class="st6" x1="3873.5" y1="1288.6" x2="3898.4" y2="1278.1"/>
	<line class="st6" x1="3848.6" y1="1299.1" x2="3873.5" y2="1288.6"/>
	<line class="st6" x1="3823.1" y1="1309.8" x2="3848.6" y2="1299.1"/>
	<line class="st6" x1="3773.9" y1="1330.6" x2="3823.1" y2="1309.8"/>
	<line class="st6" x1="3748.8" y1="1341.2" x2="3773.9" y2="1330.6"/>
	<line class="st6" x1="4018.8" y1="1250" x2="4043.7" y2="1239.5"/>
	<line class="st6" x1="3993.9" y1="1260.5" x2="4018.8" y2="1250"/>
	<line class="st6" x1="3969" y1="1271" x2="3993.9" y2="1260.5"/>
	<line class="st6" x1="3944.1" y1="1281.5" x2="3969" y2="1271"/>
	<line class="st6" x1="3919.2" y1="1292" x2="3944.1" y2="1281.5"/>
	<line class="st6" x1="3894.3" y1="1302.5" x2="3919.2" y2="1292"/>
	<line class="st6" x1="3769.8" y1="1355" x2="3894.3" y2="1302.5"/>
	<line class="st6" x1="3782.7" y1="1363.6" x2="4056.6" y2="1248.2"/>
	<line class="st6" x1="3796.4" y1="1372.9" x2="4070.4" y2="1257.4"/>
	<line class="st6" x1="3809.3" y1="1381.5" x2="4083.3" y2="1266.1"/>
	<line class="st6" x1="3823.1" y1="1390.8" x2="4097.1" y2="1275.3"/>
	<line class="st6" x1="3837" y1="1400.3" x2="4111.2" y2="1284.8"/>
	<line class="st6" x1="3849.8" y1="1408.7" x2="4123.8" y2="1293.2"/>
	<line class="st6" x1="3862.7" y1="1417.3" x2="4136.7" y2="1301.9"/>
	<line class="st6" x1="3878.5" y1="1427.9" x2="4152.5" y2="1312.4"/>
	<line class="st6" x1="3891.4" y1="1436.6" x2="4165.4" y2="1321.1"/>
	<line class="st6" x1="3905.2" y1="1445.8" x2="4179.2" y2="1330.3"/>
	<line class="st6" x1="3918.1" y1="1454.5" x2="4192.1" y2="1339"/>
	<line class="st6" x1="3931.9" y1="1463.7" x2="4205.8" y2="1348.2"/>
	<line class="st6" x1="3945.9" y1="1473.1" x2="4219.9" y2="1357.7"/>
	<line class="st6" x1="3958.5" y1="1481.6" x2="4232.5" y2="1366.1"/>
	<line class="st6" x1="4220.5" y1="1385.3" x2="4246" y2="1374.5"/>
	<line class="st6" x1="4046.2" y1="1458.7" x2="4220.5" y2="1385.3"/>
	<line class="st6" x1="4021.3" y1="1469.2" x2="4046.2" y2="1458.7"/>
	<line class="st6" x1="3971" y1="1490.4" x2="4021.3" y2="1469.2"/>
	<line class="st6" x1="3989.2" y1="1502.1" x2="4263.2" y2="1386.7"/>
	<line class="st6" x1="4002.1" y1="1510.8" x2="4276.1" y2="1395.3"/>
	<line class="st6" x1="4015.9" y1="1520" x2="4289.9" y2="1404.6"/>
	<line class="st6" x1="4028.8" y1="1528.7" x2="4302.7" y2="1413.2"/>
	<line class="st6" x1="4042.6" y1="1537.9" x2="4316.5" y2="1422.5"/>
	<line class="st6" x1="4056.2" y1="1547.5" x2="4330.6" y2="1431.9"/>
	<line class="st6" x1="4069.2" y1="1555.8" x2="4343.9" y2="1440.1"/>
	<line class="st6" x1="4306.3" y1="1470" x2="4356.1" y2="1449"/>
	<line class="st6" x1="4256.5" y1="1491" x2="4306.3" y2="1470"/>
	<line class="st6" x1="4081.8" y1="1564.6" x2="4256.5" y2="1491"/>
	<line class="st6" x1="4107.1" y1="1581.2" x2="4381.1" y2="1465.8"/>
	<line class="st6" x1="4121.7" y1="1591" x2="4395.7" y2="1475.5"/>
	<line class="st6" x1="4136" y1="1600.6" x2="4410" y2="1485.1"/>
	<line class="st6" x1="4149.7" y1="1609.7" x2="4423.4" y2="1494.1"/>
	<line class="st6" x1="4163.5" y1="1618.3" x2="4437" y2="1503.1"/>
	<line class="st6" x1="4177.2" y1="1627.1" x2="4450.2" y2="1512.1"/>
	<line class="st6" x1="4188.4" y1="1635.8" x2="4462.3" y2="1520.4"/>
</g>
<g id="Layer_4">
	<line class="st1" x1="5368.4" y1="1404.6" x2="5165" y2="2430.9"/>
	<rect x="2951.5" y="3525" class="st7" width="1708" height="241.3"/>
	<text transform="matrix(1 0 0 1 3017.0645 3673.0002)" class="st8 st9 st10">Olympisch Stadion Amsterdam</text>
	<rect x="4683.6" y="793.2" class="st0" width="1017.3" height="241.3"/>
	<text transform="matrix(1 0 0 1 4749.1582 941.2328)" class="st2 st9 st10">Batterij opslag</text>
	<rect x="4229.7" y="2490.7" class="st0" width="292.9" height="241.3"/>
	<text transform="matrix(1 0 0 1 4284.0586 2638.7727)" class="st2 st9 st10">EMS</text>
	<rect x="5090.7" y="3525" class="st7" width="872.7" height="241.3"/>
	<text transform="matrix(1 0 0 1 5156.3145 3673.0002)" class="st8 st9 st10">Cruyff Court</text>
	<rect x="824.6" y="3525" class="st7" width="872.7" height="241.3"/>
	<text transform="matrix(1 0 0 1 942.1826 3673.0002)" class="st8 st9 st10">Hoofdingang</text>
	<rect x="1832.4" y="3525" class="st7" width="872.7" height="241.3"/>
	<text transform="matrix(1 0 0 1 1897.9873 3673.0002)" class="st8 st9 st10">Parkeergarage</text>
	<rect x="6547.2" y="2113.5" class="st0" width="593.6" height="241.3"/>
	<text transform="matrix(1 0 0 1 6624.1318 2261.5374)" class="st2 st9 st10">IJsbaan</text>
	<polygon class="st2" points="4826.1,2335.6 4762.3,2377.2 4762.3,2443 4808.9,2443 4872.8,2401.4 4872.8,2335.6 	"/>
	<polygon class="st2" points="4730.7,2335.6 4666.8,2377.2 4666.8,2443 4713.5,2443 4777.4,2401.4 4777.4,2335.6 	"/>
	<polygon class="st2" points="5164.8,2329 5317,2449.6 5662.3,2242.4 5502.9,2139.3 	"/>
	<rect x="2677" y="221" class="st0" width="853.3" height="241.3"/>
	<text transform="matrix(1 0 0 1 2754.0205 369.0599)" class="st2 st9 st10">zonnepanelen</text>
	<line class="st1" x1="3324.3" y1="462.3" x2="3662.7" y2="1134.8"/>
	<line class="st1" x1="5019.1" y1="1036" x2="4843" y2="2354.8"/>
	<line class="st1" x1="6547.2" y1="2234.1" x2="5551.2" y2="2271"/>
	<line class="st1" x1="5442.9" y1="2373.4" x2="5442.9" y2="3525"/>
	<line class="st1" x1="1898" y1="3379.7" x2="1898" y2="3586"/>
	<line class="st1" x1="1534.4" y1="2203.6" x2="1534.4" y2="3557.9"/>
	<line class="st1" x1="3354.1" y1="3098.9" x2="3354.1" y2="3554.3"/>
	<line class="st1" x1="2896.7" y1="462.3" x2="1836" y2="2113.5"/>
	<polygon class="st2" points="5208.6,2389.3 5183.9,2405.4 5183.9,2430.9 5202,2430.9 5226.7,2414.8 5226.7,2389.3 	"/>
	<polygon class="st2" points="5171.7,2389.3 5146.9,2405.4 5146.9,2430.9 5165,2430.9 5189.7,2414.8 5189.7,2389.3 	"/>
	<rect x="5093.7" y="1167.7" class="st0" width="863.4" height="241.3"/>
	<text transform="matrix(1 0 0 1 5202.1973 1319.9418)" class="st2 st9 st10">Koelsysteem</text>
</g>
<g id="Layer_7">
	<path class="st1" d="M4549.6,2439.5c12.9-21.8,33.6-48.5,63.6-53.5c36.7-6.2,51.2,26.2,95.7,34.2c21.3,3.8,41.1,44.5,163.9-18.8
		c95.1-49,171.3-5,222.2,18.8c42.2,19.7,97.6-9.5,137.9-37.2"/>
</g>
</svg>
